<svg width="20" height="24" viewBox="0 0 20 24" fill="none" xmlns="http://www.w3.org/2000/svg">
<mask id="mask0_828_66" style="mask-type:luminance" maskUnits="userSpaceOnUse" x="0" y="0" width="20" height="24">
<path d="M20 0H0V24H20V0Z" fill="white"/>
</mask>
<g mask="url(#mask0_828_66)">
<path d="M19.9124 13.8232C19.9289 15.7133 19.9549 17.6034 19.9576 19.4934C19.9588 20.3138 19.8936 21.1344 19.8915 21.955C19.8886 23.1098 18.9996 23.8304 17.9073 23.854C15.3142 23.9097 12.7201 23.9583 10.1265 23.9508C7.93037 23.9444 5.73417 23.8659 3.53882 23.7962C2.93507 23.7662 2.33356 23.7027 1.73725 23.606C1.03483 23.5047 0.333994 22.6945 0.287389 21.9514C0.251482 21.3801 0.221625 20.8077 0.213625 20.2354C0.171516 17.2139 0.133746 14.1924 0.10032 11.1708C0.0666464 8.33509 0.034026 5.49939 0.00246016 2.66379C0.000539396 2.10349 0.146155 1.55219 0.425425 1.06229C0.549956 0.81739 0.742484 0.61129 0.98118 0.46739C1.21988 0.32349 1.4952 0.247491 1.77594 0.248191C2.61864 0.218591 3.46301 0.215891 4.30413 0.162791C7.35976 -0.0305094 10.415 0.117491 13.4706 0.140691C14.1003 0.145491 14.5725 0.35139 15.0343 0.77639C16.0051 1.66979 17.0418 2.49499 18.0458 3.35459C18.4281 3.68189 18.7807 4.04289 19.172 4.35869C19.5654 4.67619 19.69 5.08319 19.6985 5.55109C19.7277 7.16219 19.7579 8.77329 19.7892 10.3844C19.8121 11.5309 19.8396 12.6774 19.865 13.8239L19.9124 13.8232ZM13.179 1.29719C12.8955 1.27589 12.6602 1.24589 12.4244 1.24209C10.4198 1.20949 8.41503 1.17989 6.41025 1.15309C5.50402 1.14089 4.5976 1.13489 3.69127 1.12979C3.23081 1.12699 2.76925 1.11289 2.30999 1.13659C1.67073 1.16969 1.47398 1.35039 1.35882 1.96519C1.24434 2.54389 1.2175 3.13579 1.2791 3.72209C1.31692 4.06079 1.33591 4.40129 1.33594 4.74199C1.34562 10.2104 1.35286 15.6788 1.3577 21.1471C1.35471 21.2555 1.3591 21.364 1.37083 21.4719C1.46943 22.1783 1.85101 22.6441 2.67408 22.6759C5.72878 22.7936 8.78329 22.7941 11.8389 22.745C13.3981 22.7199 14.9576 22.7062 16.5169 22.6886C16.8983 22.6843 17.2805 22.6984 17.6611 22.6806C18.3243 22.6495 18.6559 22.3246 18.649 21.6894C18.6416 21.0087 18.5896 20.3286 18.5777 19.6479C18.5641 18.8581 18.5915 18.0673 18.5684 17.278C18.5109 15.2964 18.4125 13.3157 18.3731 11.3338C18.3417 9.73889 18.3737 8.14269 18.3759 6.54719C18.3759 6.42839 18.3627 6.30959 18.3554 6.18889C18.3004 6.17749 18.2447 6.16979 18.1886 6.16599C17.2183 6.18499 16.2481 6.21469 15.2776 6.22029C14.9757 6.22239 14.6745 6.18839 14.3811 6.11879C13.7839 5.97459 13.5967 5.74909 13.5336 5.14969C13.4768 4.61079 13.4397 4.06989 13.3901 3.53039C13.3243 2.80749 13.2538 2.08409 13.179 1.29719ZM14.8944 5.10169L17.7481 4.92759L14.4098 1.97559C14.5804 3.07609 14.7335 4.06349 14.8944 5.10169Z" fill="#4A80E5"/>
<path d="M6.21664 5.1727C6.90017 5.1727 7.58407 5.1693 8.26732 5.1739C8.74993 5.1771 8.92443 5.30979 9.02945 5.77219C9.07464 5.98409 9.09928 6.19959 9.10304 6.41609C9.11764 6.91969 8.9077 7.1762 8.40416 7.2378C7.96295 7.2921 7.51745 7.32639 7.07299 7.33739C6.38899 7.35449 5.70426 7.33809 5.02008 7.34789C4.70229 7.34589 4.38477 7.36669 4.07011 7.40999C3.33094 7.52769 2.96109 6.9325 2.97784 6.4318C2.99184 6.1843 3.02072 5.9379 3.06434 5.6937C3.07633 5.5686 3.13079 5.451 3.21913 5.3593C3.30747 5.2677 3.42465 5.20729 3.55216 5.18779C3.80071 5.13589 4.0534 5.10509 4.30741 5.09589C4.9435 5.08309 5.58006 5.09169 6.21652 5.09169L6.21664 5.1727ZM7.73737 6.1683C7.74109 6.1321 7.74474 6.0959 7.74834 6.0596C6.47057 6.104 5.19271 5.87219 3.89076 6.04379V6.41179C4.03829 6.40359 4.16203 6.402 4.28454 6.3887C4.58343 6.3564 4.8809 6.30159 5.18052 6.28679C5.86294 6.25309 6.54629 6.23989 7.22908 6.21429C7.39885 6.20729 7.56798 6.1839 7.73737 6.1683Z" fill="#4A80E5"/>
<path d="M12.0601 19.0332C10.9159 19.0332 9.77174 19.036 8.62811 19.0309C8.35884 19.0344 8.08969 19.0173 7.82317 18.9797C7.53601 18.9339 7.38597 18.7677 7.38672 18.5675C7.38765 18.3743 7.55276 18.1872 7.82393 18.1431C8.18331 18.0787 8.54709 18.0403 8.91229 18.0281C11.12 17.9891 13.3278 17.9588 15.5355 17.9375C15.7733 17.9362 16.0104 17.9632 16.2415 18.0179C16.5321 18.0857 16.6617 18.2647 16.6534 18.5082C16.6441 18.7624 16.4673 18.935 16.159 18.9816C16.0644 18.9936 15.9691 18.9986 15.8738 18.9964C14.6025 18.9974 13.3312 18.9975 12.0599 18.997L12.0601 19.0332Z" fill="#4A80E5"/>
<path d="M11.7872 15.1765C10.5155 15.1765 9.24387 15.1784 7.97225 15.1744C7.78179 15.1753 7.59166 15.159 7.40434 15.1255C7.24322 15.0952 7.10574 15.0057 7.08891 14.8228C7.0703 14.6195 7.20192 14.5058 7.37336 14.4408C7.47858 14.4062 7.5885 14.387 7.69951 14.3838C8.53914 14.3254 9.37829 14.2429 10.2191 14.2208C12.0303 14.1728 13.8423 14.1548 15.654 14.1296C15.8125 14.1274 15.9705 14.1457 16.124 14.1839C16.4433 14.2642 16.5818 14.4367 16.5685 14.6991C16.5561 14.9415 16.4157 15.1016 16.1205 15.1626C15.9339 15.1986 15.7442 15.2161 15.554 15.2145C14.2982 15.2189 13.0424 15.2168 11.7866 15.2168L11.7872 15.1765Z" fill="#4A80E5"/>
<path d="M11.923 11.4622C10.5548 11.4622 9.18667 11.4622 7.81842 11.4622C7.72298 11.4622 7.62659 11.4775 7.53235 11.4686C7.36779 11.4531 7.21255 11.4114 7.18511 11.2156C7.16938 11.1379 7.18406 11.0572 7.22628 10.9894C7.2685 10.9217 7.33519 10.8718 7.41328 10.8494C7.66671 10.7615 7.92958 10.702 8.19683 10.6718C10.2422 10.5066 12.2948 10.4412 14.347 10.4762C14.8881 10.4846 15.4292 10.4818 15.9702 10.4853C16.0815 10.4826 16.193 10.4857 16.304 10.4947C16.6786 10.5367 16.9235 10.7574 16.9107 11.033C16.8983 11.2962 16.6671 11.4921 16.3117 11.5268C16.1689 11.5382 16.0254 11.5401 15.8824 11.5325C14.9921 11.5023 14.1019 11.4644 13.2115 11.4393C12.7824 11.427 12.3526 11.4371 11.923 11.4371V11.4622Z" fill="#4A80E5"/>
<path d="M4.35355 20.3877C4.20132 20.3828 4.04943 20.3705 3.89847 20.3507C2.87522 20.1737 2.43578 19.2862 2.9262 18.3945C3.42471 17.4878 4.1701 17.2353 5.14722 17.6434C5.79354 17.913 6.12257 18.4742 6.01652 19.1261C5.89559 19.8711 5.43977 20.3047 4.70488 20.3718C4.59484 20.3815 4.48378 20.382 4.35355 20.3877ZM3.79484 19.1723C4.12973 19.385 4.48322 19.3649 4.83429 19.2566C5.02033 18.6009 4.72201 18.3362 3.95643 18.4392C3.78526 18.6447 3.67987 18.8699 3.79484 19.1723Z" fill="#8D9199"/>
<path d="M5.8734 11.042C5.8734 11.0574 5.87395 11.0729 5.8734 11.0884C5.85051 11.6394 5.72949 12.1572 5.14847 12.3947C4.50037 12.6596 3.85954 12.6064 3.31135 12.1508C2.8334 11.7534 2.69386 11.2427 2.86074 10.6403C3.07916 9.85244 3.38568 9.59874 4.26066 9.54654C5.02429 9.50124 5.56495 9.79524 5.78355 10.4038C5.8408 10.6115 5.88086 10.8232 5.90335 11.0371L5.8734 11.042ZM3.76811 10.539C3.56523 10.9082 3.56485 11.1222 3.7588 11.3548C3.99024 11.6321 4.3228 11.6933 4.79061 11.545C5.00075 11.1508 5.02923 10.8313 4.82318 10.6492C4.50383 10.3663 4.13267 10.4027 3.76811 10.539Z" fill="#8D9199"/>
<path d="M4.31849 16.2779C4.0917 16.243 3.93402 16.2269 3.78016 16.1937C3.09448 16.0459 2.66815 15.5738 2.68248 14.986C2.70015 14.2769 3.11662 13.7934 3.81411 13.641C4.45281 13.5014 5.0078 13.6333 5.47459 14.0821C6.14631 14.728 5.95459 15.7426 5.0811 16.0957C4.8237 16.1997 4.53384 16.2283 4.31849 16.2779ZM3.7477 14.4447C3.63933 14.6866 3.51514 14.9406 3.76053 15.1259C3.90546 15.2354 4.14277 15.2566 4.34073 15.2643C4.54361 15.2721 4.76109 15.2349 4.83514 14.9899C4.67448 14.5049 4.54519 14.4356 3.7477 14.4447Z" fill="#8D9199"/>
</g>
</svg>
