<svg width="142" height="174" viewBox="0 0 142 174" fill="none" xmlns="http://www.w3.org/2000/svg">
<g clip-path="url(#clip0_817_52)">
<path d="M140.597 92.319C140.777 108.824 141.016 125.328 141.103 141.833C141.133 147.666 140.678 153.5 140.644 159.335C140.59 167.688 134.105 172.776 126.484 172.937C110.994 173.265 95.4994 173.629 80.0092 173.551C61.8182 173.459 43.6276 172.983 25.4412 172.512C21.1813 172.297 16.9369 171.843 12.728 171.152C7.59351 170.434 2.52262 164.553 2.33622 158.962C1.86431 144.827 1.33132 130.69 1.17577 116.55C0.83316 85.4393 0.765616 54.3287 0.434825 23.2223C0.384287 18.4448 0.493799 13.8135 2.46938 9.39048C3.94482 6.08316 6.0471 3.392 9.71538 2.39699C11.0136 2.05699 12.3457 1.86334 13.6869 1.81949C19.4075 1.59108 25.1387 1.57234 30.8521 1.23301C50.6138 0.0581675 70.3728 0.488131 90.1345 1.14841C92.8255 1.23833 95.523 1.38564 98.2114 1.30031C99.2773 1.27 100.338 1.4539 101.331 1.84128C102.325 2.22866 103.23 2.81136 103.994 3.55519C114.147 12.5811 124.24 21.6782 134.513 30.5676C138.064 33.6406 139.282 37.2119 139.33 41.7991C139.504 58.6413 139.968 75.4813 140.323 92.3223L140.597 92.319ZM93.2948 9.46031C91.3192 9.30476 89.6606 9.08475 87.9988 9.05653C73.8553 8.81894 59.7113 8.60254 45.5659 8.40787C39.1719 8.31992 32.7765 8.28127 26.3818 8.24189C23.133 8.2222 19.8761 8.12 16.6357 8.28803C12.1116 8.52299 10.7124 9.82688 9.89916 14.2604C9.08746 18.454 8.89535 22.7443 9.32886 26.9937C9.59606 29.4483 9.73041 31.9153 9.73172 34.3845C9.79998 74.0144 9.85144 113.645 9.88603 153.274C9.86529 154.06 9.89535 154.846 9.97595 155.628C10.6493 160.731 13.3443 164.153 19.143 164.382C40.8074 165.236 62.4718 165.244 84.1428 164.877C95.0314 164.693 105.923 164.6 116.813 164.476C119.391 164.447 121.975 164.548 124.55 164.431C129.712 164.197 131.944 161.984 131.901 156.928C131.821 148.068 131.6 139.207 131.421 130.347C131.328 125.745 131.233 121.143 131.077 116.544C130.707 105.663 130.124 94.7862 129.957 83.9028C129.771 71.7809 129.957 59.6537 129.967 47.5286C129.967 46.6655 129.88 45.8027 129.832 44.9179C129.452 44.8269 129.066 44.7655 128.677 44.7346C121.83 44.8718 114.985 45.0875 108.138 45.1282C106.007 45.1444 103.883 44.9002 101.811 44.4001C97.5839 43.3611 96.2522 41.7294 95.8052 37.4008C95.4023 33.4956 95.141 29.5754 94.7905 25.6643C94.3186 20.4248 93.8231 15.1829 93.2948 9.46031ZM124.701 35.8388C124.747 35.6021 124.793 35.3652 124.84 35.128L102.611 14.9597L102.1 15.2943C103.19 22.4595 104.282 29.6248 105.406 37.0034L124.701 35.8388Z" fill="#6D6A7A"/>
</g>
<defs>
<clipPath id="clip0_817_52">
<rect width="141.113" height="173.93" fill="white"/>
</clipPath>
</defs>
</svg>
