<svg width="167" height="44" viewBox="0 0 167 44" fill="none" xmlns="http://www.w3.org/2000/svg">
<path d="M39.36 35.48C37.92 35.48 36.64 35.32 35.52 35C34.4267 34.6533 33.5733 34.0667 32.96 33.24C32.3467 32.4133 32.04 31.28 32.04 29.84V19.28H29.08V13.88H32.36L34.08 7.48H40V13.88H44.48V19.28H40V27.32C40 28.2267 40.1467 28.92 40.44 29.4C40.7333 29.8533 41.3333 30.08 42.24 30.08H44.48V34.76C44.0533 34.8933 43.52 35.0133 42.88 35.12C42.2667 35.2533 41.64 35.3467 41 35.4C40.3867 35.4533 39.84 35.48 39.36 35.48ZM54.4134 35.48C53.3201 35.48 52.3201 35.3733 51.4134 35.16C50.5068 34.9733 49.7201 34.6533 49.0534 34.2C48.3868 33.72 47.8668 33.1067 47.4934 32.36C47.1468 31.5867 46.9734 30.6533 46.9734 29.56C46.9734 27.9867 47.2934 26.7067 47.9334 25.72C48.6001 24.7333 49.5601 23.9733 50.8134 23.44C52.0668 22.9067 53.5868 22.5467 55.3734 22.36C57.1868 22.1467 59.2534 22.04 61.5734 22.04V21C61.5734 20.4133 61.4268 19.9467 61.1334 19.6C60.8668 19.2267 60.5068 18.9467 60.0534 18.76C59.6001 18.5733 59.0801 18.48 58.4934 18.48C58.0401 18.48 57.5734 18.5333 57.0934 18.64C56.6134 18.7467 56.2134 18.9333 55.8934 19.2C55.6001 19.4667 55.4534 19.84 55.4534 20.32V20.48H47.6134C47.5868 20.3733 47.5734 20.28 47.5734 20.2C47.5734 20.12 47.5734 20.0267 47.5734 19.92C47.5734 18.6133 47.9868 17.48 48.8134 16.52C49.6668 15.5333 50.9068 14.7733 52.5334 14.24C54.1868 13.68 56.2134 13.4 58.6134 13.4C60.5601 13.4 62.3601 13.6133 64.0134 14.04C65.6668 14.4667 67.0001 15.1867 68.0134 16.2C69.0268 17.1867 69.5334 18.5467 69.5334 20.28V28.52C69.5334 28.9467 69.6401 29.32 69.8534 29.64C70.0668 29.9333 70.3868 30.08 70.8134 30.08H72.2534V34.68C71.9334 34.8667 71.4001 35.04 70.6534 35.2C69.9334 35.3867 69.0801 35.48 68.0934 35.48C67.0268 35.48 66.0934 35.3733 65.2934 35.16C64.4934 34.9467 63.8401 34.64 63.3334 34.24C62.8534 33.84 62.5201 33.3733 62.3334 32.84H62.0534C61.4934 33.3467 60.8401 33.8 60.0934 34.2C59.3734 34.6 58.5468 34.9067 57.6134 35.12C56.6801 35.36 55.6134 35.48 54.4134 35.48ZM57.6534 30.52C58.1601 30.52 58.6401 30.4533 59.0934 30.32C59.5734 30.16 60.0001 29.96 60.3734 29.72C60.7468 29.4533 61.0401 29.1467 61.2534 28.8C61.4668 28.4267 61.5734 28.0267 61.5734 27.6V25.8C60.0001 25.8 58.7201 25.92 57.7334 26.16C56.7734 26.4 56.0668 26.72 55.6134 27.12C55.1601 27.52 54.9334 27.9867 54.9334 28.52C54.9334 29.0533 55.0668 29.4667 55.3334 29.76C55.6001 30.0533 55.9334 30.2533 56.3334 30.36C56.7601 30.4667 57.2001 30.52 57.6534 30.52ZM84.6131 35.48C83.3331 35.48 82.0531 35.3467 80.7731 35.08C79.5198 34.84 78.3598 34.4533 77.2931 33.92C76.2531 33.36 75.4131 32.6533 74.7731 31.8C74.1331 30.9467 73.8131 29.9067 73.8131 28.68C73.8131 28.6 73.8131 28.52 73.8131 28.44C73.8131 28.3333 73.8265 28.2267 73.8531 28.12H81.2531C81.2265 28.2 81.2131 28.28 81.2131 28.36C81.2131 28.44 81.2131 28.5067 81.2131 28.56C81.2398 29.04 81.3998 29.44 81.6931 29.76C82.0131 30.08 82.4265 30.32 82.9331 30.48C83.4398 30.64 83.9998 30.72 84.6131 30.72C84.9865 30.72 85.4265 30.6933 85.9331 30.64C86.4665 30.5867 86.9331 30.4533 87.3331 30.24C87.7331 30.0267 87.9331 29.6667 87.9331 29.16C87.9331 28.7067 87.6931 28.3733 87.2131 28.16C86.7598 27.92 86.1465 27.7333 85.3731 27.6C84.6265 27.44 83.7998 27.28 82.8931 27.12C81.9065 26.96 80.9065 26.76 79.8931 26.52C78.9065 26.2533 77.9865 25.8933 77.1331 25.44C76.2798 24.96 75.5865 24.3333 75.0531 23.56C74.5465 22.7867 74.2931 21.7867 74.2931 20.56C74.2931 19.1733 74.5731 18.0133 75.1331 17.08C75.7198 16.1467 76.5065 15.4133 77.4931 14.88C78.5065 14.32 79.6398 13.9333 80.8931 13.72C82.1731 13.48 83.5065 13.36 84.8931 13.36C86.0931 13.36 87.2798 13.48 88.4531 13.72C89.6531 13.9333 90.7465 14.2933 91.7331 14.8C92.7198 15.28 93.5065 15.92 94.0931 16.72C94.6798 17.52 94.9731 18.4933 94.9731 19.64C94.9731 19.72 94.9731 19.8267 94.9731 19.96C94.9731 20.0667 94.9598 20.1467 94.9331 20.2H87.6131V19.88C87.6131 19.48 87.4665 19.16 87.1731 18.92C86.9065 18.6533 86.5465 18.4667 86.0931 18.36C85.6665 18.2267 85.2265 18.16 84.7731 18.16C84.6131 18.16 84.3731 18.1733 84.0531 18.2C83.7331 18.2 83.3998 18.24 83.0531 18.32C82.7331 18.4 82.4531 18.5333 82.2131 18.72C81.9998 18.9067 81.8931 19.1733 81.8931 19.52C81.8931 19.84 82.0398 20.1067 82.3331 20.32C82.6531 20.5067 83.0665 20.6667 83.5731 20.8C84.1065 20.9067 84.6931 21.0267 85.3331 21.16C86.3465 21.3467 87.4398 21.5333 88.6131 21.72C89.7865 21.88 90.8931 22.1733 91.9331 22.6C92.9998 23 93.8665 23.6267 94.5331 24.48C95.1998 25.3067 95.5331 26.48 95.5331 28C95.5331 29.44 95.2398 30.6533 94.6531 31.64C94.0665 32.6 93.2665 33.36 92.2531 33.92C91.2398 34.48 90.0665 34.88 88.7331 35.12C87.4265 35.36 86.0531 35.48 84.6131 35.48ZM99.3063 35V5.96H107.266V21.96L114.026 13.88H123.306L115.506 22.4L123.506 35H114.466L110.026 27.76L107.266 30.44V35H99.3063ZM136.175 35.48C133.642 35.48 131.442 35.0933 129.575 34.32C127.735 33.52 126.308 32.3067 125.295 30.68C124.308 29.0533 123.815 26.9733 123.815 24.44C123.815 21.96 124.308 19.9067 125.295 18.28C126.282 16.6533 127.655 15.44 129.415 14.64C131.202 13.8133 133.295 13.4 135.695 13.4C138.228 13.4 140.375 13.8 142.135 14.6C143.922 15.3733 145.282 16.5733 146.215 18.2C147.148 19.8267 147.615 21.9067 147.615 24.44V25.8H131.775C131.775 26.76 131.908 27.5867 132.175 28.28C132.468 28.9733 132.922 29.5067 133.535 29.88C134.175 30.2267 135.002 30.4 136.015 30.4C136.735 30.4 137.335 30.32 137.815 30.16C138.322 30 138.722 29.7867 139.015 29.52C139.335 29.2267 139.562 28.8933 139.695 28.52C139.828 28.1467 139.895 27.7467 139.895 27.32H147.615C147.615 28.5733 147.375 29.7067 146.895 30.72C146.415 31.7333 145.695 32.6 144.735 33.32C143.775 34.0133 142.575 34.5467 141.135 34.92C139.722 35.2933 138.068 35.48 136.175 35.48ZM131.815 22.04H139.575C139.575 21.48 139.495 20.9867 139.335 20.56C139.175 20.1067 138.935 19.7333 138.615 19.44C138.322 19.12 137.948 18.88 137.495 18.72C137.068 18.56 136.575 18.48 136.015 18.48C135.135 18.48 134.402 18.6267 133.815 18.92C133.228 19.2133 132.775 19.6267 132.455 20.16C132.135 20.6667 131.922 21.2933 131.815 22.04ZM151.455 35V13.88H157.975L158.495 17.08H158.775C159.121 16.28 159.561 15.6 160.095 15.04C160.655 14.48 161.295 14.0667 162.015 13.8C162.735 13.5067 163.495 13.36 164.295 13.36C164.828 13.36 165.308 13.4133 165.735 13.52C166.161 13.6267 166.468 13.7333 166.655 13.84V20.52H164.095C163.241 20.52 162.508 20.64 161.895 20.88C161.308 21.0933 160.828 21.4267 160.455 21.88C160.108 22.3067 159.841 22.84 159.655 23.48C159.495 24.0933 159.415 24.8 159.415 25.6V35H151.455Z" fill="#4A80E5"/>
<g clip-path="url(#clip0_810_57)">
<path d="M19.9124 24.8232C19.9289 26.7133 19.9549 28.6034 19.9576 30.4934C19.9588 31.3138 19.8936 32.1344 19.8915 32.955C19.8886 34.1098 18.9996 34.8304 17.9073 34.854C15.3142 34.9097 12.7201 34.9583 10.1265 34.9508C7.9304 34.9444 5.7342 34.8659 3.53885 34.7962C2.9351 34.7662 2.33359 34.7027 1.73728 34.606C1.03486 34.5047 0.334025 33.6945 0.28742 32.9514C0.251513 32.3801 0.221656 31.8077 0.213656 31.2354C0.171547 28.2139 0.133777 25.1924 0.100351 22.1708C0.0666769 19.3351 0.0340565 16.4994 0.00249068 13.6638C0.000569911 13.1035 0.146186 12.5522 0.425456 12.0623C0.549987 11.8174 0.742515 11.6113 0.981211 11.4674C1.21991 11.3235 1.49523 11.2475 1.77597 11.2482C2.61867 11.2186 3.46304 11.2159 4.30416 11.1628C7.35979 10.9695 10.415 11.1175 13.4706 11.1407C14.1003 11.1455 14.5725 11.3514 15.0343 11.7764C16.0051 12.6698 17.0418 13.495 18.0458 14.3546C18.4281 14.6819 18.7807 15.0429 19.172 15.3587C19.5654 15.6762 19.69 16.0832 19.6985 16.5511C19.7277 18.1622 19.7579 19.7733 19.7892 21.3844C19.8121 22.5309 19.8396 23.6774 19.865 24.8239L19.9124 24.8232ZM13.179 12.2972C12.8955 12.2759 12.6602 12.2459 12.4244 12.2421C10.4198 12.2095 8.41506 12.1799 6.41028 12.1531C5.50405 12.1409 4.59763 12.1349 3.6913 12.1298C3.23084 12.127 2.76928 12.1129 2.31002 12.1366C1.67076 12.1697 1.47401 12.3504 1.35885 12.9652C1.24437 13.5439 1.21753 14.1358 1.27913 14.7221C1.31695 15.0608 1.33594 15.4013 1.33597 15.742C1.34565 21.2104 1.35289 26.6788 1.35773 32.1471C1.35474 32.2555 1.35913 32.364 1.37086 32.4719C1.46946 33.1783 1.85104 33.6441 2.67411 33.6759C5.72881 33.7936 8.78332 33.7941 11.8389 33.745C13.3981 33.7199 14.9576 33.7062 16.5169 33.6886C16.8983 33.6843 17.2805 33.6984 17.6611 33.6806C18.3243 33.6495 18.6559 33.3246 18.649 32.6894C18.6416 32.0087 18.5896 31.3286 18.5777 30.6479C18.5641 29.8581 18.5915 29.0673 18.5684 28.278C18.5109 26.2964 18.4125 24.3157 18.3731 22.3338C18.3417 20.7389 18.3737 19.1427 18.3759 17.5472C18.3759 17.4284 18.3627 17.3096 18.3554 17.1889C18.3004 17.1775 18.2447 17.1698 18.1886 17.166C17.2183 17.185 16.2481 17.2147 15.2776 17.2203C14.9757 17.2224 14.6745 17.1884 14.3811 17.1188C13.7839 16.9746 13.5967 16.7491 13.5336 16.1497C13.4768 15.6108 13.4397 15.0699 13.3901 14.5304C13.3243 13.8075 13.2538 13.0841 13.179 12.2972ZM14.8944 16.1017L17.7481 15.9276L14.4098 12.9756C14.5804 14.0761 14.7335 15.0635 14.8944 16.1017Z" fill="#4A80E5"/>
<path d="M6.21675 16.1727C6.90028 16.1727 7.58418 16.1693 8.26743 16.1739C8.75004 16.1771 8.92454 16.3098 9.02956 16.7722C9.07475 16.9841 9.09939 17.1996 9.10315 17.4161C9.11775 17.9197 8.90781 18.1762 8.40427 18.2378C7.96306 18.2921 7.51756 18.3264 7.0731 18.3374C6.3891 18.3545 5.70437 18.3381 5.02019 18.3479C4.7024 18.3459 4.38488 18.3667 4.07022 18.41C3.33105 18.5277 2.9612 17.9325 2.97795 17.4318C2.99195 17.1843 3.02083 16.9379 3.06445 16.6937C3.07644 16.5686 3.1309 16.451 3.21924 16.3593C3.30758 16.2677 3.42476 16.2073 3.55227 16.1878C3.80082 16.1359 4.05351 16.1051 4.30752 16.0959C4.94361 16.0831 5.58017 16.0917 6.21663 16.0917L6.21675 16.1727ZM7.73748 17.1683C7.7412 17.1321 7.74485 17.0959 7.74845 17.0596C6.47068 17.104 5.19282 16.8722 3.89087 17.0438V17.4118C4.0384 17.4036 4.16214 17.402 4.28465 17.3887C4.58354 17.3564 4.88101 17.3016 5.18063 17.2868C5.86305 17.2531 6.5464 17.2399 7.22919 17.2143C7.39896 17.2073 7.56809 17.1839 7.73748 17.1683Z" fill="#4A80E5"/>
<path d="M12.0601 30.0332C10.9159 30.0332 9.7717 30.036 8.62807 30.0309C8.3588 30.0344 8.08965 30.0173 7.82313 29.9797C7.53597 29.9339 7.38593 29.7677 7.38668 29.5675C7.38761 29.3743 7.55272 29.1872 7.82389 29.1431C8.18327 29.0787 8.54705 29.0403 8.91225 29.0281C11.12 28.9891 13.3278 28.9588 15.5355 28.9375C15.7733 28.9362 16.0104 28.9632 16.2415 29.0179C16.5321 29.0857 16.6617 29.2647 16.6534 29.5082C16.6441 29.7624 16.4673 29.935 16.159 29.9816C16.0644 29.9936 15.9691 29.9986 15.8738 29.9964C14.6025 29.9974 13.3312 29.9975 12.0599 29.997L12.0601 30.0332Z" fill="#4A80E5"/>
<path d="M11.7873 26.1765C10.5156 26.1765 9.244 26.1784 7.97238 26.1744C7.78192 26.1753 7.59179 26.159 7.40447 26.1255C7.24335 26.0952 7.10587 26.0057 7.08904 25.8228C7.07043 25.6195 7.20205 25.5058 7.37349 25.4408C7.47871 25.4062 7.58863 25.387 7.69964 25.3838C8.53927 25.3254 9.37842 25.2429 10.2192 25.2208C12.0304 25.1728 13.8424 25.1548 15.6541 25.1296C15.8126 25.1274 15.9706 25.1457 16.1241 25.1839C16.4434 25.2642 16.5819 25.4367 16.5686 25.6991C16.5562 25.9415 16.4158 26.1016 16.1206 26.1626C15.934 26.1986 15.7443 26.2161 15.5541 26.2145C14.2983 26.2189 13.0425 26.2168 11.7867 26.2168L11.7873 26.1765Z" fill="#4A80E5"/>
<path d="M11.923 22.4622C10.5548 22.4622 9.18664 22.4622 7.81839 22.4622C7.72295 22.4622 7.62656 22.4775 7.53232 22.4686C7.36776 22.4531 7.21252 22.4114 7.18508 22.2156C7.16935 22.1379 7.18403 22.0572 7.22625 21.9894C7.26847 21.9217 7.33516 21.8718 7.41325 21.8494C7.66668 21.7615 7.92955 21.702 8.1968 21.6718C10.2422 21.5066 12.2948 21.4412 14.347 21.4762C14.8881 21.4846 15.4292 21.4818 15.9702 21.4853C16.0815 21.4826 16.193 21.4857 16.304 21.4947C16.6786 21.5367 16.9235 21.7574 16.9107 22.033C16.8983 22.2962 16.6671 22.4921 16.3117 22.5268C16.1689 22.5382 16.0254 22.5401 15.8824 22.5325C14.9921 22.5023 14.1019 22.4644 13.2115 22.4393C12.7824 22.427 12.3526 22.4371 11.923 22.4371V22.4622Z" fill="#4A80E5"/>
<path d="M4.35359 31.3877C4.20136 31.3828 4.04947 31.3705 3.89851 31.3507C2.87526 31.1737 2.43582 30.2862 2.92624 29.3945C3.42475 28.4878 4.17014 28.2353 5.14726 28.6434C5.79358 28.913 6.12261 29.4742 6.01656 30.1261C5.89563 30.8711 5.43981 31.3047 4.70492 31.3718C4.59488 31.3815 4.48382 31.382 4.35359 31.3877ZM3.79488 30.1723C4.12977 30.385 4.48326 30.3649 4.83433 30.2566C5.02037 29.6009 4.72205 29.3362 3.95647 29.4392C3.7853 29.6447 3.68048 29.8704 3.79545 30.1728L3.79488 30.1723Z" fill="#8d9199"/>
<path d="M5.87354 22.042C5.87354 22.0574 5.87409 22.0729 5.87354 22.0884C5.85065 22.6394 5.72963 23.1572 5.14861 23.3947C4.50051 23.6596 3.85968 23.6064 3.31149 23.1508C2.83354 22.7534 2.694 22.2427 2.86088 21.6403C3.0793 20.8524 3.38582 20.5987 4.2608 20.5465C5.02443 20.5012 5.56509 20.7952 5.78369 21.4038C5.84094 21.6115 5.881 21.8232 5.90349 22.0371L5.87354 22.042ZM3.76825 21.539C3.56537 21.9082 3.56499 22.1222 3.75894 22.3548C3.99038 22.6321 4.32294 22.6933 4.79075 22.545C5.00089 22.1508 5.02937 21.8313 4.82332 21.6492C4.50397 21.3663 4.13281 21.4027 3.76825 21.539Z" fill="#8d9199"/>
<path d="M4.31857 27.2779C4.09178 27.243 3.9341 27.2269 3.78024 27.1937C3.09456 27.0459 2.66823 26.5738 2.68256 25.986C2.70023 25.2769 3.1167 24.7934 3.81419 24.641C4.45289 24.5014 5.00788 24.6333 5.47467 25.0821C6.14639 25.728 5.95467 26.7426 5.08118 27.0957C4.82378 27.1997 4.53392 27.2283 4.31857 27.2779ZM3.74778 25.4447C3.63941 25.6866 3.51522 25.9406 3.76061 26.1259C3.90554 26.2354 4.14285 26.2566 4.34081 26.2643C4.54369 26.2721 4.76117 26.2349 4.83522 25.9899C4.67456 25.5049 4.54527 25.4361 3.74778 25.4452V25.4447Z" fill="#8d9199"/>
</g>
<defs>
<clipPath id="clip0_810_57">
<rect width="20" height="24" fill="white" transform="translate(0 11)"/>
</clipPath>
</defs>
</svg>
